HIERARCHY
ROOT SpineBase
{
  OFFSET 0.000000 0.000000 0.000000
  CHANNELS 6 Xposition Yposition Zposition Zrotation Xrotation Yrotation
  JOINT SpineMid
  {
    OFFSET 0.000000 26.652445 0.000000
    CHANNELS 3 Zrotation Xrotation Yrotation
    JOINT SpineShoulder
    {
      OFFSET -0.020461 19.942221 -0.647510
      CHANNELS 3 Zrotation Xrotation Yrotation
      JOINT Neck
      {
        OFFSET -0.032809 6.670649 -0.501500
        CHANNELS 3 Zrotation Xrotation Yrotation
        JOINT Head
        {
          OFFSET -2.616728 13.463682 -0.712011
          CHANNELS 3 Zrotation Xrotation Yrotation
          End Site
          {
            OFFSET 0 0 0
          }
        }
      }
      JOINT ShoulderLeft
      {
        OFFSET -13.915383 -2.288979 7.352975
        CHANNELS 3 Zrotation Xrotation Yrotation
        JOINT ElbowLeft
        {
          OFFSET -4.266871 -18.749515 3.299466
          CHANNELS 3 Zrotation Xrotation Yrotation
          JOINT WristLeft
          {
            OFFSET -9.412777 -12.456139 8.566036
            CHANNELS 3 Zrotation Xrotation Yrotation
            JOINT HandLeft
            {
              OFFSET -0.545451 -1.782704 -2.789179
              CHANNELS 3 Zrotation Xrotation Yrotation
              JOINT HandTipLeft
              {
                OFFSET -1.126127 0.372738 -0.328353
                CHANNELS 3 Zrotation Xrotation Yrotation
                End Site
                {
                  OFFSET 0 0 0
                }
              }
              JOINT ThumbLeft
              {
                OFFSET 0.099897 -0.398711 -3.359923
                CHANNELS 3 Zrotation Xrotation Yrotation
                End Site
                {
                  OFFSET 0 0 0
                }
              }
            }
          }
        }
      }
      JOINT ShoulderRight
      {
        OFFSET 10.234821 -1.573708 -10.243147
        CHANNELS 3 Zrotation Xrotation Yrotation
        JOINT ElbowRight
        {
          OFFSET 7.895884 -17.899987 -3.746973
          CHANNELS 3 Zrotation Xrotation Yrotation
          JOINT WristRight
          {
            OFFSET -1.672148 -16.915008 -11.309636
            CHANNELS 3 Zrotation Xrotation Yrotation
            JOINT HandRight
            {
              OFFSET -1.691588 -4.060373 -0.254440
              CHANNELS 3 Zrotation Xrotation Yrotation
              JOINT HandTipRight
              {
                OFFSET -3.254802 -4.038704 -2.761474
                CHANNELS 3 Zrotation Xrotation Yrotation
                End Site
                {
                  OFFSET 0 0 0
                }
              }
              JOINT ThumbRight
              {
                OFFSET 3.523019 -3.102644 2.356730
                CHANNELS 3 Zrotation Xrotation Yrotation
                End Site
                {
                  OFFSET 0 0 0
                }
              }
            }
          }
        }
      }
    }
  }
  JOINT HipLeft
  {
    OFFSET -6.067884 0.998681 -0.068420
    CHANNELS 3 Zrotation Xrotation Yrotation
    JOINT KneeLeft
    {
      OFFSET -26.206454 4.911572 -8.366107
      CHANNELS 3 Zrotation Xrotation Yrotation
      JOINT AnkleLeft
      {
        OFFSET -2.475322 -34.175622 -6.585410
        CHANNELS 3 Zrotation Xrotation Yrotation
        JOINT FootLeft
        {
          OFFSET -5.958882 -2.591500 -8.171530
          CHANNELS 3 Zrotation Xrotation Yrotation
          End Site
          {
            OFFSET 0 0 0
          }
        }
      }
    }
  }
  JOINT HipRight
  {
    OFFSET 5.286993 1.460277 -5.895459
    CHANNELS 3 Zrotation Xrotation Yrotation
    JOINT KneeRight
    {
      OFFSET -17.895606 4.469304 -22.907594
      CHANNELS 3 Zrotation Xrotation Yrotation
      JOINT AnkleRight
      {
        OFFSET -4.952903 -31.986714 -4.348286
        CHANNELS 3 Zrotation Xrotation Yrotation
        JOINT FootRight
        {
          OFFSET -5.097809 -1.720161 -9.436203
          CHANNELS 3 Zrotation Xrotation Yrotation
          End Site
          {
            OFFSET 0 0 0
          }
        }
      }
    }
  }
}
MOTION
Frames: 8
Frame Time: 0.033333
47.455888 42.045933 376.371748 -0.000000 0.000000 27.165762 0.000000 0.000000 -27.165762 -0.000000 0.000000 0.000000 -0.000000 0.000000 0.000000 0.000000 0.000000 0.000000 -0.000000 0.000000 0.000000 -0.000000 0.000000 0.000000 -0.000000 0.000000 0.000000 -0.000000 0.000000 0.000000 0.000000 0.000000 0.000000 0.000000 0.000000 0.000000 -0.000000 0.000000 0.000000 -0.000000 0.000000 0.000000 -0.000000 0.000000 0.000000 -0.000000 0.000000 0.000000 0.000000 0.000000 0.000000 0.000000 0.000000 0.000000 0.000000 0.000000 -27.165762 -0.000000 0.000000 0.000000 -0.000000 0.000000 0.000000 0.000000 0.000000 0.000000 0.000000 0.000000 -27.165762 -0.000000 0.000000 0.000000 -0.000000 0.000000 0.000000 0.000000 0.000000 0.000000
47.340827 42.176891 376.414183 -0.279116 0.323213 27.159759 0.100807 -0.414982 -27.158607 -0.000000 0.000000 0.000000 -0.000000 0.000000 0.000000 0.000000 0.000000 0.000000 -0.325436 1.390033 -0.370219 0.002798 -2.343236 0.851606 -0.260994 -0.540840 0.929181 5.197120 -1.060908 -4.290772 0.000000 0.000000 0.000000 0.000000 0.000000 0.000000 1.502214 -0.233171 -0.412062 -3.278621 -0.033764 1.632747 1.878064 3.177227 -2.456991 1.479721 -3.560297 0.834875 0.000000 0.000000 0.000000 0.000000 0.000000 0.000000 0.100807 -0.414982 -27.158607 -0.000000 0.000000 0.000000 3.098373 -4.341963 0.408133 0.000000 0.000000 0.000000 0.100807 -0.414982 -27.158607 -0.000000 0.000000 0.000000 -0.000000 0.000000 0.000000 0.000000 0.000000 0.000000
47.264842 42.232304 376.441485 -0.420530 0.520998 27.083016 0.137233 -0.655323 -27.080319 -0.000000 0.000000 0.000000 0.892350 -0.323593 -0.013158 0.000000 0.000000 0.000000 -0.569497 2.530406 -0.665411 -0.025920 -4.394181 1.602516 -0.340830 -1.003562 1.535739 13.924860 -5.328637 -10.304584 0.000000 0.000000 0.000000 0.000000 0.000000 0.000000 2.503754 -0.433056 -0.699554 -5.531418 -0.047021 2.792134 3.357757 5.097179 -4.095016 2.963185 -6.300256 1.604026 0.000000 0.000000 0.000000 0.000000 0.000000 0.000000 0.137233 -0.655323 -27.080319 -0.000000 0.000000 0.000000 6.468620 -8.908874 0.980512 0.000000 0.000000 0.000000 0.137233 -0.655323 -27.080319 -0.000000 0.000000 0.000000 -0.000000 0.000000 0.000000 0.000000 0.000000 0.000000
47.227933 42.212171 376.453655 -0.424433 0.593688 26.935878 0.109469 -0.721539 -26.932990 -0.000000 0.000000 0.000000 1.621284 -0.554631 -0.014160 0.000000 0.000000 0.000000 -0.736583 3.421404 -0.889829 -0.100376 -6.169231 2.263659 -0.202843 -1.334775 1.727701 24.497937 -12.777232 -16.467859 0.000000 0.000000 0.000000 0.000000 0.000000 0.000000 3.007883 -0.593037 -0.866692 -6.768956 0.006654 3.475881 4.311280 5.870899 -4.938223 4.360581 -8.335745 2.310327 0.000000 0.000000 0.000000 0.000000 0.000000 0.000000 0.109469 -0.721539 -26.932990 -0.000000 0.000000 0.000000 9.910846 -13.369252 1.662756 0.000000 0.000000 0.000000 0.040352 0.186640 -26.203440 1.371621 -0.300478 -0.917585 -0.900648 -0.498367 0.195566 0.000000 0.000000 0.000000
47.230101 42.116493 376.450692 -0.290460 0.541099 26.718225 0.016174 -0.613914 -26.716767 -0.000000 0.000000 0.000000 2.575544 -0.841159 -0.008310 0.000000 0.000000 0.000000 -0.830080 4.064054 -1.046659 -0.232024 -7.684257 2.844582 0.202245 -1.478289 1.385812 33.915028 -20.806840 -20.686209 0.000000 0.000000 0.000000 0.000000 0.000000 0.000000 3.016917 -0.709736 -0.916580 -6.998960 0.154401 3.682844 4.683180 5.583590 -5.003996 5.586878 -9.737612 2.934316 0.000000 0.000000 0.000000 0.000000 0.000000 0.000000 0.016174 -0.613914 -26.716767 -0.000000 0.000000 0.000000 13.118326 -17.319138 2.309299 0.000000 0.000000 0.000000 -0.093821 0.636112 -25.760216 1.690463 -0.436019 -1.179861 -1.034493 -0.663466 0.237232 0.000000 0.000000 0.000000
47.271344 41.945270 376.432598 -0.017684 0.362515 26.429497 -0.145520 -0.332496 -26.429863 -0.000000 0.000000 0.000000 3.791959 -1.192293 0.008283 0.000000 0.000000 0.000000 -0.852362 4.459516 -1.138019 -0.430252 -8.954671 3.354400 0.946828 -1.372947 0.345387 40.638092 -26.707709 -22.442851 0.000000 0.000000 0.000000 0.000000 0.000000 0.000000 2.530983 -0.782667 -0.850761 -6.221353 0.404508 3.408816 4.477531 4.284454 -4.306664 6.564902 -10.522189 3.431037 0.000000 0.000000 0.000000 0.000000 0.000000 0.000000 -0.145520 -0.332496 -26.429863 -0.000000 0.000000 0.000000 15.722063 -20.377876 2.696395 0.000000 0.000000 0.000000 -0.307696 1.277877 -25.254153 1.940073 -0.586062 -1.420978 -1.085754 -0.828436 0.267901 0.000000 0.000000 0.000000
47.347212 41.749662 376.355482 0.336905 0.161677 26.271486 0.339955 -0.433085 -26.242294 0.332966 -0.066320 0.060452 4.857009 -1.036071 0.051226 0.000000 0.000000 0.000000 -1.929263 4.927671 -1.283145 -0.732291 -11.781261 4.919607 1.823589 8.858005 -3.758243 53.487767 -38.327289 -15.418245 0.000000 0.000000 0.000000 0.000000 0.000000 0.000000 0.758737 -0.405796 -0.721509 -5.320585 0.349508 2.951103 3.881452 2.395217 -3.315441 6.721224 -10.459137 3.973262 0.000000 0.000000 0.000000 0.000000 0.000000 0.000000 -0.373667 0.004147 -26.271948 -0.000000 0.000000 0.000000 15.745367 -20.199109 -1.727637 0.000000 0.000000 0.000000 -0.561748 1.917805 -24.774470 2.145189 -0.813874 -1.746836 -1.145543 -0.880240 0.283089 0.000000 0.000000 0.000000
47.467898 41.548257 376.276797 0.781675 -0.131001 26.239706 0.419999 -0.599023 -26.189241 0.425708 -0.150030 0.090758 7.109578 -2.181271 -0.074280 0.000000 0.000000 0.000000 -2.411333 5.479728 -1.306428 -1.309717 -12.533258 5.038789 3.987697 10.680368 -7.030901 54.634781 -39.269265 -13.838320 0.000000 0.000000 0.000000 0.000000 0.000000 0.000000 -1.847610 0.636613 -0.125581 -2.009162 0.304993 1.314018 2.001677 -0.350791 -1.302542 8.735972 -11.333122 4.645921 0.000000 0.000000 0.000000 0.000000 0.000000 0.000000 -1.074201 1.003517 -25.708391 0.622739 -0.299959 -0.520677 21.714523 -26.945132 4.636243 0.000000 0.000000 0.000000 -0.784709 2.439295 -24.297224 2.225844 -0.832620 -2.210107 -1.246939 -0.959239 0.307443 0.000000 0.000000 0.000000
